{
	"asset":{
		"generator":"Khronos glTF Blender I/O v4.4.56",
		"version":"2.0"
	},
	"scene":0,
	"scenes":[
		{
			"name":"Scene",
			"nodes":[
				0,
				1
			]
		}
	],
	"nodes":[
		{
			"mesh":0,
			"name":"Mesh_0"
		},
		{
			"mesh":1,
			"name":"Mesh_0.001"
		}
	],
	"materials":[
		{
			"doubleSided":true,
			"name":"Material_0",
			"pbrMetallicRoughness":{
				"baseColorTexture":{
					"index":0
				},
				"metallicFactor":0,
				"roughnessFactor":0.800000011920929
			}
		}
	],
	"meshes":[
		{
			"name":"Mesh_0",
			"primitives":[
				{
					"attributes":{
						"POSITION":0,
						"NORMAL":1,
						"TEXCOORD_0":2
					},
					"indices":3,
					"material":0
				}
			]
		},
		{
			"name":"Mesh_0.001",
			"primitives":[
				{
					"attributes":{
						"POSITION":4,
						"NORMAL":5,
						"TEXCOORD_0":6
					},
					"indices":7,
					"material":0
				}
			]
		}
	],
	"textures":[
		{
			"sampler":0,
			"source":0
		}
	],
	"images":[
		{
			"mimeType":"image/jpeg",
			"name":"Image_0",
			"uri":"Image_0.jpg"
		}
	],
	"accessors":[
		{
			"bufferView":0,
			"componentType":5126,
			"count":9982,
			"max":[
				0.8397809863090515,
				0.9716539978981018,
				0.4507240056991577
			],
			"min":[
				-0.8393110036849976,
				-1.0088340044021606,
				-0.3153719902038574
			],
			"type":"VEC3"
		},
		{
			"bufferView":1,
			"componentType":5126,
			"count":9982,
			"type":"VEC3"
		},
		{
			"bufferView":2,
			"componentType":5126,
			"count":9982,
			"type":"VEC2"
		},
		{
			"bufferView":3,
			"componentType":5123,
			"count":26772,
			"type":"SCALAR"
		},
		{
			"bufferView":4,
			"componentType":5126,
			"count":967,
			"max":[
				0.8363199830055237,
				0.9991769790649414,
				0.34186500310897827
			],
			"min":[
				0.5243560075759888,
				0.39369699358940125,
				-0.44339799880981445
			],
			"type":"VEC3"
		},
		{
			"bufferView":5,
			"componentType":5126,
			"count":967,
			"type":"VEC3"
		},
		{
			"bufferView":6,
			"componentType":5126,
			"count":967,
			"type":"VEC2"
		},
		{
			"bufferView":7,
			"componentType":5123,
			"count":3180,
			"type":"SCALAR"
		}
	],
	"bufferViews":[
		{
			"buffer":0,
			"byteLength":119784,
			"byteOffset":0,
			"target":34962
		},
		{
			"buffer":0,
			"byteLength":119784,
			"byteOffset":119784,
			"target":34962
		},
		{
			"buffer":0,
			"byteLength":79856,
			"byteOffset":239568,
			"target":34962
		},
		{
			"buffer":0,
			"byteLength":53544,
			"byteOffset":319424,
			"target":34963
		},
		{
			"buffer":0,
			"byteLength":11604,
			"byteOffset":372968,
			"target":34962
		},
		{
			"buffer":0,
			"byteLength":11604,
			"byteOffset":384572,
			"target":34962
		},
		{
			"buffer":0,
			"byteLength":7736,
			"byteOffset":396176,
			"target":34962
		},
		{
			"buffer":0,
			"byteLength":6360,
			"byteOffset":403912,
			"target":34963
		}
	],
	"samplers":[
		{
			"magFilter":9729,
			"minFilter":9987
		}
	],
	"buffers":[
		{
			"byteLength":410272,
			"uri":"holder1.bin"
		}
	]
}
