{
	"asset":{
		"generator":"Khronos glTF Blender I/O v4.4.56",
		"version":"2.0"
	},
	"extensionsUsed":[
		"KHR_materials_emissive_strength",
		"KHR_materials_sheen",
		"KHR_materials_anisotropy"
	],
	"scene":0,
	"scenes":[
		{
			"name":"Scene",
			"nodes":[
				0
			]
		}
	],
	"nodes":[
		{
			"mesh":0,
			"name":"helmet"
		}
	],
	"materials":[
		{
			"doubleSided":true,
			"extensions":{
				"KHR_materials_sheen":{
					"sheenColorFactor":[
						1.0,
						1.0,
						1.0
					],
					"sheenRoughnessFactor":1
				},
				"KHR_materials_anisotropy":{
					"anisotropyStrength":1
				}
			},
			"name":"main",
			"pbrMetallicRoughness":{
				"baseColorFactor":[
					0.800000011920929,
					0.800000011920929,
					0.800000011920929,
					1
				],
				"metallicFactor":0.7339449524879456,
				"roughnessFactor":0.4541284441947937
			}
		},
		{
			"doubleSided":true,
			"emissiveFactor":[
				0.03878387063741684,
				0.6094298958778381,
				1
			],
			"extensions":{
				"KHR_materials_emissive_strength":{
					"emissiveStrength":40
				}
			},
			"name":"light",
			"pbrMetallicRoughness":{
				"baseColorFactor":[
					0.800000011920929,
					0.800000011920929,
					0.800000011920929,
					1
				],
				"metallicFactor":0,
				"roughnessFactor":0.5
			}
		},
		{
			"doubleSided":true,
			"name":"dark",
			"pbrMetallicRoughness":{
				"baseColorFactor":[
					0.0468917116522789,
					0.0468917116522789,
					0.0468917116522789,
					1
				],
				"metallicFactor":0,
				"roughnessFactor":0.5
			}
		},
		{
			"doubleSided":true,
			"extensions":{
				"KHR_materials_sheen":{
					"sheenColorFactor":[
						1.0,
						1.0,
						1.0
					],
					"sheenRoughnessFactor":1
				},
				"KHR_materials_anisotropy":{
					"anisotropyStrength":1
				}
			},
			"name":"sec",
			"pbrMetallicRoughness":{
				"baseColorFactor":[
					0.1582687944173813,
					0.1582687944173813,
					0.1582687944173813,
					1
				],
				"metallicFactor":0
			}
		},
		{
			"doubleSided":true,
			"name":"hud",
			"pbrMetallicRoughness":{
				"baseColorFactor":[
					0.037986841052770615,
					0.5013188719749451,
					0.8004403114318848,
					1
				],
				"roughnessFactor":0.31272730231285095
			}
		},
		{
			"doubleSided":true,
			"name":"front",
			"pbrMetallicRoughness":{
				"baseColorFactor":[
					0.03569740429520607,
					0.03569740429520607,
					0.03569740429520607,
					1
				],
				"metallicFactor":0.6448598504066467
			}
		}
	],
	"meshes":[
		{
			"name":"Cube.003",
			"primitives":[
				{
					"attributes":{
						"POSITION":0,
						"NORMAL":1,
						"TEXCOORD_0":2,
						"TEXCOORD_1":3
					},
					"indices":4,
					"material":0
				},
				{
					"attributes":{
						"POSITION":5,
						"NORMAL":6,
						"TEXCOORD_0":7,
						"TEXCOORD_1":8
					},
					"indices":9,
					"material":1
				},
				{
					"attributes":{
						"POSITION":10,
						"NORMAL":11,
						"TEXCOORD_0":12,
						"TEXCOORD_1":13
					},
					"indices":14,
					"material":2
				},
				{
					"attributes":{
						"POSITION":15,
						"NORMAL":16,
						"TEXCOORD_0":17,
						"TEXCOORD_1":18
					},
					"indices":19,
					"material":3
				},
				{
					"attributes":{
						"POSITION":20,
						"NORMAL":21,
						"TEXCOORD_0":22,
						"TEXCOORD_1":23
					},
					"indices":24,
					"material":4
				},
				{
					"attributes":{
						"POSITION":25,
						"NORMAL":26,
						"TEXCOORD_0":27,
						"TEXCOORD_1":28
					},
					"indices":29,
					"material":5
				}
			]
		}
	],
	"accessors":[
		{
			"bufferView":0,
			"componentType":5126,
			"count":406398,
			"max":[
				0.7458958029747009,
				0.7854832410812378,
				1.1276227235794067
			],
			"min":[
				-0.7458958029747009,
				-0.9033721685409546,
				-1.0679912567138672
			],
			"type":"VEC3"
		},
		{
			"bufferView":1,
			"componentType":5126,
			"count":406398,
			"type":"VEC3"
		},
		{
			"bufferView":2,
			"componentType":5126,
			"count":406398,
			"type":"VEC2"
		},
		{
			"bufferView":3,
			"componentType":5126,
			"count":406398,
			"type":"VEC2"
		},
		{
			"bufferView":4,
			"componentType":5125,
			"count":615735,
			"type":"SCALAR"
		},
		{
			"bufferView":5,
			"componentType":5126,
			"count":49775,
			"max":[
				0.7470396161079407,
				0.8219089508056641,
				1.2237024307250977
			],
			"min":[
				-0.7470394372940063,
				-0.8814941048622131,
				-1.0549259185791016
			],
			"type":"VEC3"
		},
		{
			"bufferView":6,
			"componentType":5126,
			"count":49775,
			"type":"VEC3"
		},
		{
			"bufferView":7,
			"componentType":5126,
			"count":49775,
			"type":"VEC2"
		},
		{
			"bufferView":8,
			"componentType":5126,
			"count":49775,
			"type":"VEC2"
		},
		{
			"bufferView":9,
			"componentType":5123,
			"count":77592,
			"type":"SCALAR"
		},
		{
			"bufferView":10,
			"componentType":5126,
			"count":121654,
			"max":[
				0.6610938906669617,
				0.8354053497314453,
				1.216825246810913
			],
			"min":[
				-0.6610938906669617,
				-0.8787268996238708,
				0.3519743084907532
			],
			"type":"VEC3"
		},
		{
			"bufferView":11,
			"componentType":5126,
			"count":121654,
			"type":"VEC3"
		},
		{
			"bufferView":12,
			"componentType":5126,
			"count":121654,
			"type":"VEC2"
		},
		{
			"bufferView":13,
			"componentType":5126,
			"count":121654,
			"type":"VEC2"
		},
		{
			"bufferView":14,
			"componentType":5125,
			"count":215184,
			"type":"SCALAR"
		},
		{
			"bufferView":15,
			"componentType":5126,
			"count":76142,
			"max":[
				0.7520118951797485,
				0.14121124148368835,
				0.39570385217666626
			],
			"min":[
				-0.7520114183425903,
				-0.5897307395935059,
				-0.2883113622665405
			],
			"type":"VEC3"
		},
		{
			"bufferView":16,
			"componentType":5126,
			"count":76142,
			"type":"VEC3"
		},
		{
			"bufferView":17,
			"componentType":5126,
			"count":76142,
			"type":"VEC2"
		},
		{
			"bufferView":18,
			"componentType":5126,
			"count":76142,
			"type":"VEC2"
		},
		{
			"bufferView":19,
			"componentType":5125,
			"count":120921,
			"type":"SCALAR"
		},
		{
			"bufferView":20,
			"componentType":5126,
			"count":45440,
			"max":[
				0.6045250296592712,
				0.12287027388811111,
				1.0473816394805908
			],
			"min":[
				-0.6045250296592712,
				-0.4597285985946655,
				-0.016293596476316452
			],
			"type":"VEC3"
		},
		{
			"bufferView":21,
			"componentType":5126,
			"count":45440,
			"type":"VEC3"
		},
		{
			"bufferView":22,
			"componentType":5126,
			"count":45440,
			"type":"VEC2"
		},
		{
			"bufferView":23,
			"componentType":5126,
			"count":45440,
			"type":"VEC2"
		},
		{
			"bufferView":24,
			"componentType":5123,
			"count":68160,
			"type":"SCALAR"
		},
		{
			"bufferView":25,
			"componentType":5126,
			"count":1865408,
			"max":[
				0.6546883583068848,
				0.8516339063644409,
				1.245593547821045
			],
			"min":[
				-0.6546883583068848,
				-0.5440210700035095,
				-0.024576574563980103
			],
			"type":"VEC3"
		},
		{
			"bufferView":26,
			"componentType":5126,
			"count":1865408,
			"type":"VEC3"
		},
		{
			"bufferView":27,
			"componentType":5126,
			"count":1865408,
			"type":"VEC2"
		},
		{
			"bufferView":28,
			"componentType":5126,
			"count":1865408,
			"type":"VEC2"
		},
		{
			"bufferView":29,
			"componentType":5125,
			"count":3998814,
			"type":"SCALAR"
		}
	],
	"bufferViews":[
		{
			"buffer":0,
			"byteLength":4876776,
			"byteOffset":0,
			"target":34962
		},
		{
			"buffer":0,
			"byteLength":4876776,
			"byteOffset":4876776,
			"target":34962
		},
		{
			"buffer":0,
			"byteLength":3251184,
			"byteOffset":9753552,
			"target":34962
		},
		{
			"buffer":0,
			"byteLength":3251184,
			"byteOffset":13004736,
			"target":34962
		},
		{
			"buffer":0,
			"byteLength":2462940,
			"byteOffset":16255920,
			"target":34963
		},
		{
			"buffer":0,
			"byteLength":597300,
			"byteOffset":18718860,
			"target":34962
		},
		{
			"buffer":0,
			"byteLength":597300,
			"byteOffset":19316160,
			"target":34962
		},
		{
			"buffer":0,
			"byteLength":398200,
			"byteOffset":19913460,
			"target":34962
		},
		{
			"buffer":0,
			"byteLength":398200,
			"byteOffset":20311660,
			"target":34962
		},
		{
			"buffer":0,
			"byteLength":155184,
			"byteOffset":20709860,
			"target":34963
		},
		{
			"buffer":0,
			"byteLength":1459848,
			"byteOffset":20865044,
			"target":34962
		},
		{
			"buffer":0,
			"byteLength":1459848,
			"byteOffset":22324892,
			"target":34962
		},
		{
			"buffer":0,
			"byteLength":973232,
			"byteOffset":23784740,
			"target":34962
		},
		{
			"buffer":0,
			"byteLength":973232,
			"byteOffset":24757972,
			"target":34962
		},
		{
			"buffer":0,
			"byteLength":860736,
			"byteOffset":25731204,
			"target":34963
		},
		{
			"buffer":0,
			"byteLength":913704,
			"byteOffset":26591940,
			"target":34962
		},
		{
			"buffer":0,
			"byteLength":913704,
			"byteOffset":27505644,
			"target":34962
		},
		{
			"buffer":0,
			"byteLength":609136,
			"byteOffset":28419348,
			"target":34962
		},
		{
			"buffer":0,
			"byteLength":609136,
			"byteOffset":29028484,
			"target":34962
		},
		{
			"buffer":0,
			"byteLength":483684,
			"byteOffset":29637620,
			"target":34963
		},
		{
			"buffer":0,
			"byteLength":545280,
			"byteOffset":30121304,
			"target":34962
		},
		{
			"buffer":0,
			"byteLength":545280,
			"byteOffset":30666584,
			"target":34962
		},
		{
			"buffer":0,
			"byteLength":363520,
			"byteOffset":31211864,
			"target":34962
		},
		{
			"buffer":0,
			"byteLength":363520,
			"byteOffset":31575384,
			"target":34962
		},
		{
			"buffer":0,
			"byteLength":136320,
			"byteOffset":31938904,
			"target":34963
		},
		{
			"buffer":0,
			"byteLength":22384896,
			"byteOffset":32075224,
			"target":34962
		},
		{
			"buffer":0,
			"byteLength":22384896,
			"byteOffset":54460120,
			"target":34962
		},
		{
			"buffer":0,
			"byteLength":14923264,
			"byteOffset":76845016,
			"target":34962
		},
		{
			"buffer":0,
			"byteLength":14923264,
			"byteOffset":91768280,
			"target":34962
		},
		{
			"buffer":0,
			"byteLength":15995256,
			"byteOffset":106691544,
			"target":34963
		}
	],
	"buffers":[
		{
			"byteLength":122686800,
			"uri":"Sci-fi%20helmet-white.bin"
		}
	]
}
