{
	"asset":{
		"generator":"Khronos glTF Blender I/O v4.4.56",
		"version":"2.0"
	},
	"scene":0,
	"scenes":[
		{
			"name":"Scene",
			"nodes":[
				0
			]
		}
	],
	"nodes":[
		{
			"mesh":0,
			"name":"RobotHead"
		}
	],
	"materials":[
		{
			"name":"Material_0",
			"normalTexture":{
				"index":0
			},
			"pbrMetallicRoughness":{
				"baseColorTexture":{
					"index":1
				},
				"metallicRoughnessTexture":{
					"index":2
				}
			}
		}
	],
	"meshes":[
		{
			"name":"RobotHead",
			"primitives":[
				{
					"attributes":{
						"POSITION":0,
						"NORMAL":1,
						"TEXCOORD_0":2
					},
					"indices":3,
					"material":0
				}
			]
		}
	],
	"textures":[
		{
			"sampler":0,
			"source":0
		},
		{
			"sampler":0,
			"source":1
		},
		{
			"sampler":0,
			"source":2
		}
	],
	"images":[
		{
			"mimeType":"image/png",
			"name":"Image_1",
			"uri":"Image_1.png"
		},
		{
			"mimeType":"image/png",
			"name":"Image_0",
			"uri":"Image_0.png"
		},
		{
			"mimeType":"image/png",
			"name":"Image_2",
			"uri":"Image_2.png"
		}
	],
	"accessors":[
		{
			"bufferView":0,
			"componentType":5126,
			"count":17942,
			"max":[
				0.6132889986038208,
				0.95237797498703,
				0.7260439991950989
			],
			"min":[
				-0.613306999206543,
				-0.9530900120735168,
				-0.7252810001373291
			],
			"type":"VEC3"
		},
		{
			"bufferView":1,
			"componentType":5126,
			"count":17942,
			"type":"VEC3"
		},
		{
			"bufferView":2,
			"componentType":5126,
			"count":17942,
			"type":"VEC2"
		},
		{
			"bufferView":3,
			"componentType":5123,
			"count":69969,
			"type":"SCALAR"
		}
	],
	"bufferViews":[
		{
			"buffer":0,
			"byteLength":215304,
			"byteOffset":0,
			"target":34962
		},
		{
			"buffer":0,
			"byteLength":215304,
			"byteOffset":215304,
			"target":34962
		},
		{
			"buffer":0,
			"byteLength":143536,
			"byteOffset":430608,
			"target":34962
		},
		{
			"buffer":0,
			"byteLength":139938,
			"byteOffset":574144,
			"target":34963
		}
	],
	"samplers":[
		{
			"magFilter":9729,
			"minFilter":9987
		}
	],
	"buffers":[
		{
			"byteLength":714084,
			"uri":"placeholder_head_c.bin"
		}
	]
}
