{
	"asset":{
		"generator":"Khronos glTF Blender I/O v4.4.56",
		"version":"2.0"
	},
	"scene":0,
	"scenes":[
		{
			"name":"Scene",
			"nodes":[
				0
			]
		}
	],
	"nodes":[
		{
			"mesh":0,
			"name":"Mesh_0"
		}
	],
	"materials":[
		{
			"doubleSided":true,
			"name":"Material_0",
			"pbrMetallicRoughness":{
				"baseColorTexture":{
					"index":0
				},
				"metallicFactor":0,
				"roughnessFactor":0.800000011920929
			}
		}
	],
	"meshes":[
		{
			"name":"Mesh_0",
			"primitives":[
				{
					"attributes":{
						"POSITION":0,
						"NORMAL":1,
						"TEXCOORD_0":2
					},
					"indices":3,
					"material":0
				}
			]
		}
	],
	"textures":[
		{
			"sampler":0,
			"source":0
		}
	],
	"images":[
		{
			"mimeType":"image/jpeg",
			"name":"Image_0",
			"uri":"Image_0.jpg"
		}
	],
	"accessors":[
		{
			"bufferView":0,
			"componentType":5126,
			"count":10859,
			"max":[
				0.8397809863090515,
				0.9991769790649414,
				0.4507240056991577
			],
			"min":[
				-0.8393110036849976,
				-1.0088340044021606,
				-0.44339799880981445
			],
			"type":"VEC3"
		},
		{
			"bufferView":1,
			"componentType":5126,
			"count":10859,
			"type":"VEC3"
		},
		{
			"bufferView":2,
			"componentType":5126,
			"count":10859,
			"type":"VEC2"
		},
		{
			"bufferView":3,
			"componentType":5123,
			"count":29952,
			"type":"SCALAR"
		}
	],
	"bufferViews":[
		{
			"buffer":0,
			"byteLength":130308,
			"byteOffset":0,
			"target":34962
		},
		{
			"buffer":0,
			"byteLength":130308,
			"byteOffset":130308,
			"target":34962
		},
		{
			"buffer":0,
			"byteLength":86872,
			"byteOffset":260616,
			"target":34962
		},
		{
			"buffer":0,
			"byteLength":59904,
			"byteOffset":347488,
			"target":34963
		}
	],
	"samplers":[
		{
			"magFilter":9729,
			"minFilter":9987
		}
	],
	"buffers":[
		{
			"byteLength":407392,
			"uri":"robot2.bin"
		}
	]
}
