{
	"asset":{
		"generator":"Khronos glTF Blender I/O v4.4.56",
		"version":"2.0"
	},
	"scene":0,
	"scenes":[
		{
			"name":"Scene",
			"nodes":[
				0
			]
		}
	],
	"nodes":[
		{
			"mesh":0,
			"name":"Mesh_0.002"
		}
	],
	"materials":[
		{
			"doubleSided":true,
			"name":"Material_0",
			"pbrMetallicRoughness":{
				"baseColorTexture":{
					"index":0
				},
				"metallicFactor":0,
				"roughnessFactor":0.800000011920929
			}
		}
	],
	"meshes":[
		{
			"name":"Mesh_0.002",
			"primitives":[
				{
					"attributes":{
						"POSITION":0,
						"NORMAL":1,
						"TEXCOORD_0":2
					},
					"indices":3,
					"material":0
				}
			]
		}
	],
	"textures":[
		{
			"sampler":0,
			"source":0
		}
	],
	"images":[
		{
			"mimeType":"image/jpeg",
			"name":"Image_0",
			"uri":"Image_0.jpg"
		}
	],
	"accessors":[
		{
			"bufferView":0,
			"componentType":5126,
			"count":1273,
			"max":[
				0.3827730119228363,
				0.9716539978981018,
				0.4507240056991577
			],
			"min":[
				-0.38800299167633057,
				0.44337698817253113,
				-0.24313199520111084
			],
			"type":"VEC3"
		},
		{
			"bufferView":1,
			"componentType":5126,
			"count":1273,
			"type":"VEC3"
		},
		{
			"bufferView":2,
			"componentType":5126,
			"count":1273,
			"type":"VEC2"
		},
		{
			"bufferView":3,
			"componentType":5123,
			"count":4059,
			"type":"SCALAR"
		}
	],
	"bufferViews":[
		{
			"buffer":0,
			"byteLength":15276,
			"byteOffset":0,
			"target":34962
		},
		{
			"buffer":0,
			"byteLength":15276,
			"byteOffset":15276,
			"target":34962
		},
		{
			"buffer":0,
			"byteLength":10184,
			"byteOffset":30552,
			"target":34962
		},
		{
			"buffer":0,
			"byteLength":8118,
			"byteOffset":40736,
			"target":34963
		}
	],
	"samplers":[
		{
			"magFilter":9729,
			"minFilter":9987
		}
	],
	"buffers":[
		{
			"byteLength":48856,
			"uri":"head0.bin"
		}
	]
}
