{
	"asset":{
		"generator":"Khronos glTF Blender I/O v4.4.56",
		"version":"2.0"
	},
	"scene":0,
	"scenes":[
		{
			"name":"Scene",
			"nodes":[
				0
			]
		}
	],
	"nodes":[
		{
			"mesh":0,
			"name":"Mesh_0.004"
		}
	],
	"materials":[
		{
			"doubleSided":true,
			"name":"Material_0",
			"pbrMetallicRoughness":{
				"baseColorTexture":{
					"index":0
				},
				"metallicFactor":0,
				"roughnessFactor":0.800000011920929
			}
		}
	],
	"meshes":[
		{
			"name":"Mesh_0.004",
			"primitives":[
				{
					"attributes":{
						"POSITION":0,
						"NORMAL":1,
						"TEXCOORD_0":2
					},
					"indices":3,
					"material":0
				}
			]
		}
	],
	"textures":[
		{
			"sampler":0,
			"source":0
		}
	],
	"images":[
		{
			"mimeType":"image/jpeg",
			"name":"Image_0",
			"uri":"Image_0.jpg"
		}
	],
	"accessors":[
		{
			"bufferView":0,
			"componentType":5126,
			"count":1444,
			"max":[
				0.8397809863090515,
				0.5184710025787354,
				0.3753820061683655
			],
			"min":[
				0.15719099342823029,
				-0.30738699436187744,
				-0.10695599764585495
			],
			"type":"VEC3"
		},
		{
			"bufferView":1,
			"componentType":5126,
			"count":1444,
			"type":"VEC3"
		},
		{
			"bufferView":2,
			"componentType":5126,
			"count":1444,
			"type":"VEC2"
		},
		{
			"bufferView":3,
			"componentType":5123,
			"count":3459,
			"type":"SCALAR"
		}
	],
	"bufferViews":[
		{
			"buffer":0,
			"byteLength":17328,
			"byteOffset":0,
			"target":34962
		},
		{
			"buffer":0,
			"byteLength":17328,
			"byteOffset":17328,
			"target":34962
		},
		{
			"buffer":0,
			"byteLength":11552,
			"byteOffset":34656,
			"target":34962
		},
		{
			"buffer":0,
			"byteLength":6918,
			"byteOffset":46208,
			"target":34963
		}
	],
	"samplers":[
		{
			"magFilter":9729,
			"minFilter":9987
		}
	],
	"buffers":[
		{
			"byteLength":53128,
			"uri":"left_arm.bin"
		}
	]
}
