{
	"asset":{
		"generator":"Khronos glTF Blender I/O v4.4.56",
		"version":"2.0"
	},
	"scene":0,
	"scenes":[
		{
			"name":"Scene",
			"nodes":[
				0
			]
		}
	],
	"nodes":[
		{
			"mesh":0,
			"name":"Mesh_0.005"
		}
	],
	"materials":[
		{
			"doubleSided":true,
			"name":"Material_0",
			"pbrMetallicRoughness":{
				"baseColorTexture":{
					"index":0
				},
				"metallicFactor":0,
				"roughnessFactor":0.800000011920929
			}
		}
	],
	"meshes":[
		{
			"name":"Mesh_0.005",
			"primitives":[
				{
					"attributes":{
						"POSITION":0,
						"NORMAL":1,
						"TEXCOORD_0":2
					},
					"indices":3,
					"material":0
				}
			]
		}
	],
	"textures":[
		{
			"sampler":0,
			"source":0
		}
	],
	"images":[
		{
			"mimeType":"image/jpeg",
			"name":"Image_0",
			"uri":"Image_0.jpg"
		}
	],
	"accessors":[
		{
			"bufferView":0,
			"componentType":5126,
			"count":1571,
			"max":[
				0.5707219839096069,
				-0.020805999636650085,
				0.3438059985637665
			],
			"min":[
				0.07364500313997269,
				-1.0088340044021606,
				-0.2387319952249527
			],
			"type":"VEC3"
		},
		{
			"bufferView":1,
			"componentType":5126,
			"count":1571,
			"type":"VEC3"
		},
		{
			"bufferView":2,
			"componentType":5126,
			"count":1571,
			"type":"VEC2"
		},
		{
			"bufferView":3,
			"componentType":5123,
			"count":4425,
			"type":"SCALAR"
		}
	],
	"bufferViews":[
		{
			"buffer":0,
			"byteLength":18852,
			"byteOffset":0,
			"target":34962
		},
		{
			"buffer":0,
			"byteLength":18852,
			"byteOffset":18852,
			"target":34962
		},
		{
			"buffer":0,
			"byteLength":12568,
			"byteOffset":37704,
			"target":34962
		},
		{
			"buffer":0,
			"byteLength":8850,
			"byteOffset":50272,
			"target":34963
		}
	],
	"samplers":[
		{
			"magFilter":9729,
			"minFilter":9987
		}
	],
	"buffers":[
		{
			"byteLength":59124,
			"uri":"left_leg.bin"
		}
	]
}
