{
	"asset":{
		"generator":"Khronos glTF Blender I/O v4.4.56",
		"version":"2.0"
	},
	"scene":0,
	"scenes":[
		{
			"name":"Scene",
			"nodes":[
				0
			]
		}
	],
	"nodes":[
		{
			"mesh":0,
			"name":"Mesh_0.003"
		}
	],
	"materials":[
		{
			"doubleSided":true,
			"name":"Material_0",
			"pbrMetallicRoughness":{
				"baseColorTexture":{
					"index":0
				},
				"metallicFactor":0,
				"roughnessFactor":0.800000011920929
			}
		}
	],
	"meshes":[
		{
			"name":"Mesh_0.003",
			"primitives":[
				{
					"attributes":{
						"POSITION":0,
						"NORMAL":1,
						"TEXCOORD_0":2
					},
					"indices":3,
					"material":0
				}
			]
		}
	],
	"textures":[
		{
			"sampler":0,
			"source":0
		}
	],
	"images":[
		{
			"mimeType":"image/jpeg",
			"name":"Image_0",
			"uri":"Image_0.jpg"
		}
	],
	"accessors":[
		{
			"bufferView":0,
			"componentType":5126,
			"count":1421,
			"max":[
				-0.1640460044145584,
				0.5163750052452087,
				0.37666401267051697
			],
			"min":[
				-0.8393110036849976,
				-0.3065069913864136,
				-0.10474900156259537
			],
			"type":"VEC3"
		},
		{
			"bufferView":1,
			"componentType":5126,
			"count":1421,
			"type":"VEC3"
		},
		{
			"bufferView":2,
			"componentType":5126,
			"count":1421,
			"type":"VEC2"
		},
		{
			"bufferView":3,
			"componentType":5123,
			"count":3378,
			"type":"SCALAR"
		}
	],
	"bufferViews":[
		{
			"buffer":0,
			"byteLength":17052,
			"byteOffset":0,
			"target":34962
		},
		{
			"buffer":0,
			"byteLength":17052,
			"byteOffset":17052,
			"target":34962
		},
		{
			"buffer":0,
			"byteLength":11368,
			"byteOffset":34104,
			"target":34962
		},
		{
			"buffer":0,
			"byteLength":6756,
			"byteOffset":45472,
			"target":34963
		}
	],
	"samplers":[
		{
			"magFilter":9729,
			"minFilter":9987
		}
	],
	"buffers":[
		{
			"byteLength":52228,
			"uri":"right_arm.bin"
		}
	]
}
