{
	"asset":{
		"generator":"Khronos glTF Blender I/O v4.4.56",
		"version":"2.0"
	},
	"scene":0,
	"scenes":[
		{
			"name":"Scene",
			"nodes":[
				0
			]
		}
	],
	"nodes":[
		{
			"mesh":0,
			"name":"Mesh_0.006"
		}
	],
	"materials":[
		{
			"doubleSided":true,
			"name":"Material_0",
			"pbrMetallicRoughness":{
				"baseColorTexture":{
					"index":0
				},
				"metallicFactor":0,
				"roughnessFactor":0.800000011920929
			}
		}
	],
	"meshes":[
		{
			"name":"Mesh_0.006",
			"primitives":[
				{
					"attributes":{
						"POSITION":0,
						"NORMAL":1,
						"TEXCOORD_0":2
					},
					"indices":3,
					"material":0
				}
			]
		}
	],
	"textures":[
		{
			"sampler":0,
			"source":0
		}
	],
	"images":[
		{
			"mimeType":"image/jpeg",
			"name":"Image_0",
			"uri":"Image_0.jpg"
		}
	],
	"accessors":[
		{
			"bufferView":0,
			"componentType":5126,
			"count":1617,
			"max":[
				-0.07375200092792511,
				-0.01081399992108345,
				0.3754279911518097
			],
			"min":[
				-0.5702630281448364,
				-0.9985010027885437,
				-0.23936699330806732
			],
			"type":"VEC3"
		},
		{
			"bufferView":1,
			"componentType":5126,
			"count":1617,
			"type":"VEC3"
		},
		{
			"bufferView":2,
			"componentType":5126,
			"count":1617,
			"type":"VEC2"
		},
		{
			"bufferView":3,
			"componentType":5123,
			"count":4413,
			"type":"SCALAR"
		}
	],
	"bufferViews":[
		{
			"buffer":0,
			"byteLength":19404,
			"byteOffset":0,
			"target":34962
		},
		{
			"buffer":0,
			"byteLength":19404,
			"byteOffset":19404,
			"target":34962
		},
		{
			"buffer":0,
			"byteLength":12936,
			"byteOffset":38808,
			"target":34962
		},
		{
			"buffer":0,
			"byteLength":8826,
			"byteOffset":51744,
			"target":34963
		}
	],
	"samplers":[
		{
			"magFilter":9729,
			"minFilter":9987
		}
	],
	"buffers":[
		{
			"byteLength":60572,
			"uri":"right_leg.bin"
		}
	]
}
