{
	"asset":{
		"generator":"Khronos glTF Blender I/O v4.4.56",
		"version":"2.0"
	},
	"scene":0,
	"scenes":[
		{
			"name":"Scene",
			"nodes":[
				0
			]
		}
	],
	"nodes":[
		{
			"mesh":0,
			"name":"Mesh_0"
		}
	],
	"materials":[
		{
			"doubleSided":true,
			"name":"Material_0",
			"pbrMetallicRoughness":{
				"baseColorTexture":{
					"index":0
				},
				"metallicFactor":0,
				"roughnessFactor":0.800000011920929
			}
		}
	],
	"meshes":[
		{
			"name":"Mesh_0",
			"primitives":[
				{
					"attributes":{
						"POSITION":0,
						"NORMAL":1,
						"TEXCOORD_0":2
					},
					"indices":3,
					"material":0
				}
			]
		}
	],
	"textures":[
		{
			"sampler":0,
			"source":0
		}
	],
	"images":[
		{
			"mimeType":"image/jpeg",
			"name":"Image_0",
			"uri":"Image_0.jpg"
		}
	],
	"accessors":[
		{
			"bufferView":0,
			"componentType":5126,
			"count":2712,
			"max":[
				0.22288599610328674,
				0.5249540209770203,
				0.3439590036869049
			],
			"min":[
				-0.22682499885559082,
				-0.2190680056810379,
				-0.3153719902038574
			],
			"type":"VEC3"
		},
		{
			"bufferView":1,
			"componentType":5126,
			"count":2712,
			"type":"VEC3"
		},
		{
			"bufferView":2,
			"componentType":5126,
			"count":2712,
			"type":"VEC2"
		},
		{
			"bufferView":3,
			"componentType":5123,
			"count":7032,
			"type":"SCALAR"
		}
	],
	"bufferViews":[
		{
			"buffer":0,
			"byteLength":32544,
			"byteOffset":0,
			"target":34962
		},
		{
			"buffer":0,
			"byteLength":32544,
			"byteOffset":32544,
			"target":34962
		},
		{
			"buffer":0,
			"byteLength":21696,
			"byteOffset":65088,
			"target":34962
		},
		{
			"buffer":0,
			"byteLength":14064,
			"byteOffset":86784,
			"target":34963
		}
	],
	"samplers":[
		{
			"magFilter":9729,
			"minFilter":9987
		}
	],
	"buffers":[
		{
			"byteLength":100848,
			"uri":"torso.bin"
		}
	]
}
